<svg width="223" height="223" viewBox="0 0 223 223" fill="none" xmlns="http://www.w3.org/2000/svg">
<circle cx="111.5" cy="111.5" r="111.5" fill="#131313"/>
<path d="M56.75 144.99C53.01 144.99 49.5633 144.257 46.41 142.79C43.33 141.323 40.8367 139.233 38.93 136.52C37.0967 133.733 36.18 130.433 36.18 126.62C36.18 122.807 37.17 119.507 39.15 116.72C41.13 113.86 43.8067 111.697 47.18 110.23C50.6267 108.69 54.4033 107.92 58.51 107.92C61.8833 107.92 64.89 108.47 67.53 109.57C70.2433 110.597 72.7367 112.173 75.01 114.3L75.56 113.75C74.9 113.09 73.7633 112.1 72.15 110.78V108.58C72.15 105.573 71.0867 103.19 68.96 101.43C66.8333 99.67 63.8633 98.79 60.05 98.79C53.23 98.79 48.2067 101.283 44.98 106.27C43.3667 105.757 42.01 104.95 40.91 103.85C39.81 102.677 39.26 101.43 39.26 100.11C39.26 97.91 40.25 95.8933 42.23 94.06C44.21 92.2267 46.8867 90.76 50.26 89.66C53.6333 88.56 57.3 88.01 61.26 88.01C69.0333 88.01 75.0467 89.8433 79.3 93.51C83.5533 97.1033 85.68 102.017 85.68 108.25V135.75C85.68 138.977 84.6533 141.323 82.6 142.79C80.5467 144.257 77.32 144.99 72.92 144.99V140.48C74.1667 139.233 75.01 138.317 75.45 137.73L75.01 137.18C72.59 139.747 69.9867 141.69 67.2 143.01C64.4867 144.33 61.0033 144.99 56.75 144.99ZM60.27 134.98C64.0833 134.98 67.0533 134.247 69.18 132.78C71.3067 131.313 72.37 129.223 72.37 126.51C72.37 123.87 71.27 121.78 69.07 120.24C66.9433 118.7 64.0467 117.93 60.38 117.93C57.0067 117.93 54.33 118.7 52.35 120.24C50.4433 121.707 49.49 123.797 49.49 126.51C49.49 129.297 50.4433 131.423 52.35 132.89C54.2567 134.283 56.8967 134.98 60.27 134.98ZM147.612 141.03C146.952 142.277 145.998 143.267 144.752 144C143.505 144.66 142.075 144.99 140.462 144.99C139.068 144.99 137.822 144.66 136.722 144C135.622 143.413 134.558 142.423 133.532 141.03L119.012 119.58L111.532 126.51V136.63C111.532 139.563 110.395 141.69 108.122 143.01C105.922 144.33 102.548 144.99 98.0017 144.99V76.57C98.0017 69.53 102.585 66.01 111.752 66.01V111.44L136.942 88.01C140.608 90.87 142.442 93.2167 142.442 95.05C142.442 96.2233 142.112 97.25 141.452 98.13C140.865 99.01 139.912 100.037 138.592 101.21L127.042 111.99L147.612 141.03ZM175.983 144.99C169.896 144.99 165.276 143.267 162.123 139.82C159.043 136.3 157.503 131.863 157.503 126.51V74.37C157.503 71.3633 158.603 69.2367 160.803 67.99C163.076 66.67 166.56 66.01 171.253 66.01V125.96C171.253 128.453 171.803 130.287 172.903 131.46C174.003 132.56 175.763 133.11 178.183 133.11C180.896 133.11 183.61 132.413 186.323 131.02C187.056 131.68 187.606 132.523 187.973 133.55C188.413 134.503 188.633 135.493 188.633 136.52C188.633 138.72 187.533 140.7 185.333 142.46C183.133 144.147 180.016 144.99 175.983 144.99Z" fill="white"/>
</svg>
